C:\GBW_MyPrograms\KinderuniversiteitApp\Resultaten\New_group\test4_v1.mot
version=1
nRows=6
nColumns=31
inDegrees=yes
endheader
                time	         pelvis_tilt	           pelvis_tx	           pelvis_ty	       hip_flexion_r	        knee_angle_r	       ankle_angle_r	       hip_flexion_l	        knee_angle_l	       ankle_angle_l	    lumbar_extension	          arm_flex_r	          arm_flex_l	hamstrings_r/activation	bifemsh_r/activation	glut_max_r/activation	iliopsoas_r/activation	rect_fem_r/activation	  vasti_r/activation	gastroc_r/activation	 soleus_r/activation	tib_ant_r/activation	hamstrings_l/activation	bifemsh_l/activation	glut_max_l/activation	iliopsoas_l/activation	rect_fem_l/activation	  vasti_l/activation	gastroc_l/activation	 soleus_l/activation	tib_ant_l/activation	
          1.16832785	          0.09921154	          1.54350877	          1.16753535	         -8.77064942	        -23.21045505	        -20.17019136	        -10.56583350	          9.26203299	        -13.53927614	         -2.49415752	         -6.43026233	         -6.43442960	          0.51153214	          0.72148568	          0.30687199	          0.72710492	          0.46540524	          0.22018947	          0.51152451	          0.29078904	          0.79867907	          0.67728688	          0.56802913	          0.56927561	          0.40983825	          0.45932489	          0.61882099	          0.67081020	          0.56441643	          0.77409458	
          1.17611670	          0.10387020	          1.55344191	          1.16935790	         -7.32458694	        -24.69240249	        -19.16671000	        -12.28897755	         10.72881327	        -14.53454015	         -2.53945957	         -6.36829701	         -6.37267908	          0.49899907	          0.71546024	          0.33284390	          0.72258829	          0.48542183	          0.21638169	          0.50154275	          0.26915269	          0.80120153	          0.70124199	          0.61952319	          0.53946213	          0.49883164	          0.42025539	          0.58278250	          0.73777221	          0.64747543	          0.73979933	
          1.18390556	          0.13120864	          1.56285252	          1.17074370	         -5.81965566	        -26.29179499	        -18.25715632	        -13.42664382	         10.94167890	        -14.73468392	         -2.66421941	         -6.23644067	         -6.24102280	          0.46359128	          0.72135846	          0.31492821	          0.74678502	          0.54969633	          0.21114765	          0.49090266	          0.24798070	          0.80412595	          0.69498771	          0.68367953	          0.51155203	          0.64283252	          0.39016879	          0.55264973	          0.77393535	          0.68312170	          0.67596517	
          1.19169441	          0.15796296	          1.57177416	          1.17173016	         -4.25377248	        -27.95099308	        -17.41214899	        -14.02200755	         10.36634058	        -14.65411745	         -2.83752135	         -6.04396309	         -6.04872885	          0.43524960	          0.72510170	          0.29640221	          0.75026747	          0.59894714	          0.20503155	          0.47964331	          0.22947381	          0.80636611	          0.69707515	          0.73844561	          0.48037198	          0.74026109	          0.36347335	          0.52159791	          0.77776939	          0.67064296	          0.63157880	
          1.19948326	          0.17749792	          1.58034711	          1.17234689	         -2.65362222	        -29.60166796	        -16.58581864	        -14.26594999	          9.67189955	        -14.74056512	         -3.03722858	         -5.80997971	         -5.81491164	          0.40371597	          0.72990561	          0.27291916	          0.76320665	          0.64805388	          0.19460264	          0.46670440	          0.21237290	          0.81108206	          0.68013070	          0.76989176	          0.44317976	          0.80398808	          0.35005641	          0.49151560	          0.76763367	          0.65862246	          0.58865331	
          1.20727211	          0.19065550	          1.58868418	          1.17266793	         -1.04086155	        -31.19774028	        -15.77903646	        -14.26026768	          8.92087071	        -15.13881536	         -3.25275341	         -5.54854090	         -5.55362018	          0.37010178	          0.73520665	          0.25766451	          0.77371058	          0.68451297	          0.18538563	          0.45317218	          0.19675371	          0.81432859	          0.67084312	          0.78069676	          0.41042912	          0.84522910	          0.33586025	          0.47116115	          0.74608456	          0.65658440	          0.54711761	
